<svg xmlns="http://www.w3.org/2000/svg" version="1.1" xmlns:xlink="http://www.w3.org/1999/xlink" viewBox="0 0 13.499830533550943 9.641586940264672"><g transform="matrix(1,0,0,1,0.9480353839629716,6.68580595083295)"><rect width="13.499830533550943" height="13.499830533550943" x="-0.9480353839629716" y="-8.614927747476086" fill="#ffffff"></rect><g clip-path="url(#SvgjsClipPath1002)"><g clip-path="url(#SvgjsClipPath1000928d1fa8-1731-48b2-8c28-61fb06ed6e9e)"><path d=" M 4.922729820021336 -1.843823435222124 C 4.961056044846325 -1.9089780174246087 4.9845992972388204 -1.9839879145820922 4.9845992972388204 -2.064472986714572 C 4.9845992972388204 -2.1466006113395535 4.961056044846325 -2.2216105084970357 4.922729820021336 -2.2867650906995203 L 4.935322722463831 -2.2867650906995203 C 5.181158078841274 -2.2867650906995203 5.381549482926227 -2.487704012281972 5.381549482926227 -2.7329918511619145 C 5.381549482926227 -2.978827207539357 5.180610561343774 -3.179218611624309 4.935322722463831 -3.179218611624309 L 4.488000927006438 -3.179218611624309 C 4.5263271518314285 -3.2443731938267937 4.549870404223923 -3.319383090984277 4.549870404223923 -3.399868163116757 C 4.549870404223923 -3.4819957877417385 4.5263271518314285 -3.5570056848992206 4.488000927006438 -3.6221602671017052 C 4.485810857016438 -3.6265404070817047 4.483620787026439 -3.632015582056703 4.48033568204144 -3.6380382745292006 C 4.673061841161396 -3.6862198143091898 4.816511425506361 -3.8603303785141487 4.816511425506361 -4.0683870275641 C 4.816511425506361 -4.314222383941541 4.616667538918907 -4.514613788026494 4.370284665043965 -4.514613788026494 L 4.175368435934011 -4.514613788026494 C 4.213694660759002 -4.579768370228979 4.237237913151496 -4.654778267386462 4.237237913151496 -4.7352633395189425 C 4.237237913151496 -4.8173909641439225 4.213694660759002 -4.892400861301406 4.175368435934011 -4.95755544350389 L 4.867430552773847 -4.95755544350389 C 5.053586501923803 -4.95755544350389 5.2140091286912655 -5.071986600481363 5.280258745888749 -5.234599297238825 L 7.185619637188298 -5.234599297238825 C 7.486206743315726 -5.234599297238825 7.731494582195667 -4.989858975856382 7.731494582195667 -4.6887243522314535 L 7.731494582195667 -2.111559491499563 C 7.731494582195667 -1.8109723853721347 7.485659225818226 -1.566779581487193 7.185619637188298 -1.566779581487193 L 4.180296093411509 -1.566779581487193 C 4.172630848446511 -1.5848476589046898 4.163323050989012 -1.602915736322184 4.153467736034015 -1.6193412612471807 L 4.539467571771424 -1.6193412612471807 C 4.7026277860263885 -1.619888778744678 4.845529852873853 -1.7107766833296552 4.922729820021336 -1.843823435222124 Z" fill="#004a80" transform="matrix(1,0,0,1,0,0)" fill-rule="nonzero"></path></g><g clip-path="url(#SvgjsClipPath1000928d1fa8-1731-48b2-8c28-61fb06ed6e9e)"><path d=" M 8.205097217533059 -4.994239115836379 L 8.205097217533059 -1.8071397628896322 C 8.205097217533059 -1.3965016397647299 7.872206579053137 -1.0636110012848077 7.4615684559282345 -1.0636110012848077 L 4.060389761459039 -1.0636110012848077 C 4.153467736034016 -1.1457386259097877 4.2142421782565025 -1.2645499228672596 4.2142421782565025 -1.3975966747597282 C 4.2142421782565025 -1.4167597871722233 4.213147143261503 -1.4359228995847184 4.209862038276503 -1.4545384944997153 L 7.185072119690799 -1.4545384944997153 C 7.548623738030712 -1.4545384944997153 7.843188151685644 -1.7496504256521441 7.843188151685644 -2.1115594914995586 L 7.843188151685644 -4.688724352231449 C 7.843188151685644 -5.052275970571363 7.548076220533216 -5.346840384226293 7.185072119690799 -5.346840384226293 L 5.308729655758743 -5.346840384226293 C 5.312014760743743 -5.366003496638788 5.313109795738742 -5.385166609051284 5.313109795738742 -5.40378220396628 C 5.313109795738742 -5.5373764733562485 5.252335353516256 -5.65618777031372 5.159257378941279 -5.7377678774412 L 7.461568455928234 -5.7377678774412 C 7.872206579053137 -5.738862912436202 8.205097217533059 -5.405424756458782 8.205097217533059 -4.994239115836379 Z" fill="#004a80" transform="matrix(1,0,0,1,0,0)" fill-rule="nonzero"></path></g><g clip-path="url(#SvgjsClipPath1000928d1fa8-1731-48b2-8c28-61fb06ed6e9e)"><path d=" M 1.887292813882054 -5.182585134976334 L 2.1271054777869973 -5.182585134976334 C 2.2492018797294677 -5.182585134976334 2.3488500642744445 -5.2822333195213105 2.3488500642744445 -5.404329721463782 C 2.3488500642744445 -5.526426123406253 2.2492018797294677 -5.62607430795123 2.1271054777869973 -5.62607430795123 L 1.887292813882054 -5.62607430795123 C 1.7651964119395824 -5.62607430795123 1.6655482273946065 -5.526426123406253 1.6655482273946065 -5.404329721463782 C 1.6655482273946065 -5.2822333195213105 1.7646488944420824 -5.182585134976334 1.887292813882054 -5.182585134976334 Z" fill="#006fbf" transform="matrix(1,0,0,1,0,0)" fill-rule="nonzero"></path></g><g clip-path="url(#SvgjsClipPath1000928d1fa8-1731-48b2-8c28-61fb06ed6e9e)"><path d=" M 1.2581952092547024 -4.514613788026493 L 1.566447560347129 -4.514613788026493 L 1.6195567576046164 -4.514613788026493 C 1.7416531595470879 -4.514613788026493 1.8413013440920636 -4.614261972571468 1.8413013440920636 -4.73635837451394 C 1.8413013440920636 -4.858454776456411 1.7416531595470879 -4.958102961001387 1.6195567576046164 -4.958102961001387 L 1.2581952092547024 -4.958102961001387 C 1.136098807312231 -4.958102961001387 1.036450622767255 -4.858454776456411 1.036450622767255 -4.73635837451394 C 1.036998140264755 -4.6142619725714695 1.136098807312231 -4.514613788026493 1.2581952092547024 -4.514613788026493 Z" fill="#006fbf" transform="matrix(1,0,0,1,0,0)" fill-rule="nonzero"></path></g><g clip-path="url(#SvgjsClipPath1000928d1fa8-1731-48b2-8c28-61fb06ed6e9e)"><path d=" M 1.8599169390070602 -4.068934545061598 C 1.8599169390070602 -4.191030947004068 1.7602687544620843 -4.2906791315490445 1.638172352519613 -4.2906791315490445 L 1.620104275102117 -4.2906791315490445 L 1.5669950778446298 -4.2906791315490445 C 1.4448986759021583 -4.2906791315490445 1.3452504913571826 -4.191030947004068 1.3452504913571826 -4.068934545061598 C 1.3452504913571826 -3.946838143119127 1.4448986759021583 -3.84718995857415 1.5669950778446298 -3.84718995857415 L 1.638172352519613 -3.84718995857415 C 1.7608162719595837 -3.8471899585741514 1.8599169390070602 -3.946290625621627 1.8599169390070602 -4.068934545061598 Z" fill="#006fbf" transform="matrix(1,0,0,1,0,0)" fill-rule="nonzero"></path></g><g clip-path="url(#SvgjsClipPath1000928d1fa8-1731-48b2-8c28-61fb06ed6e9e)"><path d=" M 0.810873413797308 -4.068934545061598 C 0.810873413797308 -4.123138777314085 0.7665244964998185 -4.167487694611575 0.7123202642473313 -4.167487694611575 L 0.6674238294523425 -4.167487694611575 C 0.6132195971998553 -4.167487694611575 0.5688706799023657 -4.123138777314085 0.5688706799023657 -4.068934545061598 C 0.5688706799023657 -4.014730312809109 0.6132195971998553 -3.9703813955116196 0.6674238294523425 -3.9703813955116196 L 0.7123202642473313 -3.9703813955116196 C 0.7665244964998185 -3.9703813955116214 0.810873413797308 -4.014182795311611 0.810873413797308 -4.068934545061598 Z" fill="#004a80" transform="matrix(1,0,0,1,0,0)" fill-rule="nonzero"></path></g><g clip-path="url(#SvgjsClipPath1000928d1fa8-1731-48b2-8c28-61fb06ed6e9e)"><path d=" M 3.4811162491041774 -3.4009631981117554 C 3.4811162491041774 -3.523059600054227 3.3814680645592006 -3.6227077845992053 3.2593716626167293 -3.6227077845992053 L 2.6165861205518812 -3.6227077845992053 L 2.244274222251969 -3.6227077845992053 C 2.122177820309498 -3.6227077845992053 2.022529635764522 -3.5230596000542285 2.022529635764522 -3.4009631981117554 C 2.022529635764522 -3.278866796169284 2.122177820309498 -3.1792186116243077 2.244274222251969 -3.1792186116243077 L 2.681193185256866 -3.1792186116243077 L 2.906770394226812 -3.1792186116243077 L 3.2593716626167293 -3.1792186116243077 C 3.380920547061699 -3.1792186116243077 3.4811162491041774 -3.278866796169284 3.4811162491041774 -3.4009631981117554 Z" fill="#006fbf" transform="matrix(1,0,0,1,0,0)" fill-rule="nonzero"></path></g><g clip-path="url(#SvgjsClipPath1000928d1fa8-1731-48b2-8c28-61fb06ed6e9e)"><path d=" M 4.1047386787565285 -3.622707784599202 C 3.9831897943115573 -3.621612749604202 3.8846366447615805 -3.5225120825567258 3.8846366447615805 -3.400963198111754 C 3.8846366447615805 -3.279414313666784 3.9831897943115573 -3.1803136466193074 4.1047386787565285 -3.179218611624306 C 4.2262875632015 -3.1803136466193074 4.3248407127514765 -3.278866796169283 4.3248407127514765 -3.400963198111754 C 4.325388230248977 -3.522512082556727 4.2262875632015 -3.621612749604204 4.1047386787565285 -3.622707784599202 Z" fill="#0094ff" transform="matrix(1,0,0,1,0,0)" fill-rule="nonzero"></path></g><g clip-path="url(#SvgjsClipPath1000928d1fa8-1731-48b2-8c28-61fb06ed6e9e)"><path d=" M 1.591085847734623 -3.4009631981117554 C 1.591085847734623 -3.523059600054227 1.491437663189647 -3.6227077845992053 1.3693412612471756 -3.6227077845992053 L 1.1437640522772288 -3.6227077845992053 C 1.021667650334758 -3.6227077845992053 0.9220194657897813 -3.5230596000542285 0.9220194657897813 -3.4009631981117554 C 0.9220194657897813 -3.278866796169284 1.021667650334758 -3.1792186116243077 1.1437640522772288 -3.1792186116243077 L 1.3693412612471756 -3.1792186116243077 C 1.4919851806871463 -3.1792186116243077 1.591085847734623 -3.278866796169284 1.591085847734623 -3.4009631981117554 Z" fill="#004a80" transform="matrix(1,0,0,1,0,0)" fill-rule="nonzero"></path></g><g clip-path="url(#SvgjsClipPath1000928d1fa8-1731-48b2-8c28-61fb06ed6e9e)"><path d=" M 2.680098150261866 -2.9547364376493612 C 2.5580017483193944 -2.9547364376493612 2.458353563774418 -2.855088253104386 2.458353563774418 -2.732991851161913 C 2.458353563774418 -2.610895449219442 2.5580017483193944 -2.511247264674465 2.680098150261866 -2.511247264674465 L 2.7835789572893406 -2.511247264674465 L 2.906222876729312 -2.511247264674465 C 3.0283192786717836 -2.511247264674465 3.127967463216762 -2.610895449219442 3.127967463216762 -2.732991851161913 C 3.127967463216762 -2.855088253104386 3.028319278671785 -2.9547364376493612 2.906222876729312 -2.9547364376493612 L 2.680098150261866 -2.9547364376493612 Z" fill="#006fbf" transform="matrix(1,0,0,1,0,0)" fill-rule="nonzero"></path></g><g clip-path="url(#SvgjsClipPath1000928d1fa8-1731-48b2-8c28-61fb06ed6e9e)"><path d=" M 1.4815823482346495 -2.732991851161913 C 1.4815823482346495 -2.610895449219443 1.5812305327796254 -2.511247264674465 1.7033269347220967 -2.511247264674465 L 1.8998857163245504 -2.511247264674465 L 1.9289041436920438 -2.511247264674465 C 2.051000545634515 -2.511247264674465 2.150648730179491 -2.610895449219442 2.150648730179491 -2.732991851161913 C 2.150648730179491 -2.855088253104386 2.051000545634515 -2.9547364376493612 1.9289041436920438 -2.9547364376493612 L 1.7033269347220967 -2.9547364376493612 C 1.580683015282126 -2.9547364376493612 1.4815823482346495 -2.8556357706018844 1.4815823482346495 -2.732991851161913 Z" fill="#004a80" transform="matrix(1,0,0,1,0,0)" fill-rule="nonzero"></path></g><g clip-path="url(#SvgjsClipPath1000928d1fa8-1731-48b2-8c28-61fb06ed6e9e)"><path d=" M 0.9762236980422692 -2.8216896857568923 L 0.8711003385222938 -2.8216896857568923 C 0.814158518782307 -2.8216896857568923 0.7681670489923182 -2.775698215966903 0.7681670489923182 -2.7187563962269174 C 0.7681670489923182 -2.6618145764869308 0.8141585187823077 -2.6158231066969413 0.8711003385222938 -2.6158231066969413 L 0.9762236980422692 -2.6158231066969413 C 1.033165517782256 -2.6158231066969413 1.0791569875722449 -2.6618145764869308 1.0791569875722449 -2.7187563962269174 C 1.0791569875722449 -2.775698215966903 1.032618000284756 -2.8216896857568923 0.9762236980422692 -2.8216896857568923 Z" fill="#004a80" transform="matrix(1,0,0,1,0,0)" fill-rule="nonzero"></path></g><g clip-path="url(#SvgjsClipPath1000928d1fa8-1731-48b2-8c28-61fb06ed6e9e)"><path d=" M 2.121630302811998 -2.065568021709571 C 2.121630302811998 -2.187664423652042 2.021982118267022 -2.2873126081970185 1.8998857163245504 -2.2873126081970185 L 1.7033269347220967 -2.2873126081970185 L 1.6743085073546033 -2.2873126081970185 C 1.552212105412132 -2.2873126081970185 1.4525639208671561 -2.1876644236520435 1.4525639208671561 -2.065568021709571 C 1.4525639208671561 -1.9434716197670991 1.552212105412132 -1.8438234352221228 1.6743085073546033 -1.8438234352221228 L 1.8998857163245504 -1.8438234352221228 C 2.022529635764522 -1.843823435222124 2.121630302811998 -1.9429241022696009 2.121630302811998 -2.065568021709571 Z" fill="#006fbf" transform="matrix(1,0,0,1,0,0)" fill-rule="nonzero"></path></g><g clip-path="url(#SvgjsClipPath1000928d1fa8-1731-48b2-8c28-61fb06ed6e9e)"><path d=" M 2.417837268959428 -1.6193412612471763 L 2.192260059989481 -1.6193412612471763 C 2.07016365804701 -1.6193412612471763 1.9705154735020336 -1.5196930767022012 1.9705154735020336 -1.3975966747597282 C 1.9705154735020336 -1.2755002728172569 2.07016365804701 -1.17585208827228 2.192260059989481 -1.17585208827228 L 2.417837268959428 -1.17585208827228 C 2.5399336709018994 -1.17585208827228 2.6395818554468757 -1.2755002728172569 2.6395818554468757 -1.3975966747597282 C 2.639034337949376 -1.5196930767022012 2.5399336709018994 -1.6193412612471763 2.417837268959428 -1.6193412612471763 Z" fill="#006fbf" transform="matrix(1,0,0,1,0,0)" fill-rule="nonzero"></path></g><g clip-path="url(#SvgjsClipPath1000928d1fa8-1731-48b2-8c28-61fb06ed6e9e)"><path d=" M 0.2294098314524458 -3.503896487641732 L 0.10293328952997557 -3.503896487641732 C 0.04599146978998871 -3.503896487641732 0 -3.4579050178517425 0 -3.4009631981117554 C 0 -3.34402137837177 0.04599146978998944 -3.2980299085817806 0.10293328952997557 -3.2980299085817806 L 0.2294098314524458 -3.2980299085817806 C 0.28635165119243267 -3.2980299085817806 0.33234312098242136 -3.34402137837177 0.33234312098242136 -3.4009631981117554 C 0.33179560348492143 -3.4573575003542425 0.28580413369493274 -3.503896487641732 0.2294098314524458 -3.503896487641732 Z" fill="#004a80" transform="matrix(1,0,0,1,0,0)" fill-rule="nonzero"></path></g><g clip-path="url(#SvgjsClipPath1000928d1fa8-1731-48b2-8c28-61fb06ed6e9e)"><path d=" M 4.538372536776428 -2.2873126081970185 L 4.501141346946436 -2.2873126081970185 L 3.9399359120090676 -2.2873126081970185 L 2.906770394226812 -2.2873126081970185 L 2.784126474786842 -2.2873126081970185 C 2.6620300728443707 -2.2873126081970185 2.5623818882993943 -2.1876644236520435 2.5623818882993943 -2.065568021709571 C 2.5623818882993943 -1.9434716197670991 2.6620300728443707 -1.8438234352221228 2.784126474786842 -1.8438234352221228 L 3.225973095269237 -1.8438234352221228 L 3.7685629352916084 -1.8438234352221228 L 4.538372536776428 -1.8438234352221228 C 4.660468938718897 -1.8438234352221228 4.760117123263875 -1.9434716197670991 4.760117123263875 -2.065568021709571 C 4.760117123263874 -2.1876644236520435 4.659921421221399 -2.2873126081970185 4.538372536776428 -2.2873126081970185 Z" fill="#0094ff" transform="matrix(1,0,0,1,0,0)" fill-rule="nonzero"></path></g><g clip-path="url(#SvgjsClipPath1000928d1fa8-1731-48b2-8c28-61fb06ed6e9e)"><path d=" M 5.412757980283721 -0.6934891729748953 L 5.375526790453729 -0.6934891729748953 L 5.038256011993809 -0.6934891729748953 L 4.2295726681865 -0.6934891729748953 L 4.106928748746527 -0.6934891729748953 C 3.984832346804057 -0.6934891729748953 3.885184162259079 -0.5938409884299203 3.885184162259079 -0.4717445864874472 C 3.885184162259079 -0.3496481845449759 3.9848323468040556 -0.2499999999999991 4.106928748746527 -0.2499999999999991 L 4.324840712751476 -0.2499999999999991 L 4.867430552773847 -0.2499999999999991 L 5.413305497781217 -0.2499999999999991 C 5.535401899723688 -0.2499999999999991 5.6350500842686655 -0.3496481845449759 5.6350500842686655 -0.4717445864874472 C 5.634502566771167 -0.5938409884299203 5.5354018997236905 -0.6934891729748953 5.412757980283721 -0.6934891729748953 Z" fill="#004a80" transform="matrix(1,0,0,1,0,0)" fill-rule="nonzero"></path></g><g clip-path="url(#SvgjsClipPath1000928d1fa8-1731-48b2-8c28-61fb06ed6e9e)"><path d=" M 4.592576769028913 -4.068934545061598 C 4.592576769028913 -4.191030947004068 4.492928584483936 -4.2906791315490445 4.370832182541465 -4.2906791315490445 L 3.7910111526891015 -4.2906791315490445 L 3.449360234249182 -4.2906791315490445 L 2.616586120551878 -4.2906791315490445 C 2.494489718609407 -4.2906791315490445 2.394841534064431 -4.191030947004068 2.394841534064431 -4.068934545061598 C 2.394841534064431 -3.946838143119127 2.494489718609407 -3.84718995857415 2.616586120551878 -3.84718995857415 L 3.2593716626167275 -3.84718995857415 L 4.103643643761528 -3.84718995857415 L 4.107476266244025 -3.84718995857415 L 4.262423718036489 -3.84718995857415 L 4.370832182541464 -3.84718995857415 C 4.492928584483936 -3.8471899585741514 4.592576769028913 -3.946290625621627 4.592576769028913 -4.068934545061598 Z" fill="#0094ff" transform="matrix(1,0,0,1,0,0)" fill-rule="nonzero"></path></g><g clip-path="url(#SvgjsClipPath1000928d1fa8-1731-48b2-8c28-61fb06ed6e9e)"><path d=" M 4.935322722463832 -2.9547364376493612 L 4.262423718036492 -2.9547364376493612 L 4.107476266244029 -2.9547364376493612 L 4.10364364376153 -2.9547364376493612 L 3.9399359120090676 -2.9547364376493612 C 3.8178395100665976 -2.9547364376493612 3.7181913255216195 -2.855088253104386 3.7181913255216195 -2.732991851161913 C 3.7181913255216195 -2.610895449219442 3.817839510066596 -2.511247264674465 3.9399359120090676 -2.511247264674465 L 4.538920054273926 -2.511247264674465 L 4.935870239961332 -2.511247264674465 C 5.0579666419038025 -2.511247264674465 5.15761482644878 -2.610895449219442 5.15761482644878 -2.732991851161913 C 5.157067308951279 -2.8556357706018844 5.056871606908804 -2.9547364376493612 4.935322722463832 -2.9547364376493612 Z" fill="#0094ff" transform="matrix(1,0,0,1,0,0)" fill-rule="nonzero"></path></g><g clip-path="url(#SvgjsClipPath1000928d1fa8-1731-48b2-8c28-61fb06ed6e9e)"><path d=" M 2.5262457334644024 -4.514613788026493 L 2.616038603054381 -4.514613788026493 L 3.4493602342491836 -4.514613788026493 L 3.7910111526891033 -4.514613788026493 C 3.9131075546315746 -4.514613788026493 4.012755739176551 -4.614261972571468 4.012755739176551 -4.73635837451394 C 4.012755739176551 -4.858454776456411 3.913107554631576 -4.958102961001387 3.7910111526891033 -4.958102961001387 L 3.4493602342491836 -4.958102961001387 L 3.1131844907842647 -4.958102961001387 L 2.526793250961902 -4.958102961001387 C 2.4046968490194307 -4.958102961001387 2.305048664474455 -4.858454776456411 2.305048664474455 -4.73635837451394 C 2.3039536294794547 -4.6142619725714695 2.4041493315219316 -4.514613788026493 2.5262457334644024 -4.514613788026493 Z" fill="#0094ff" transform="matrix(1,0,0,1,0,0)" fill-rule="nonzero"></path></g><g clip-path="url(#SvgjsClipPath1000928d1fa8-1731-48b2-8c28-61fb06ed6e9e)"><path d=" M 3.1120894557892633 -5.182585134976334 L 3.448812716751685 -5.182585134976334 L 3.7904636351916046 -5.182585134976334 L 4.8668830352763495 -5.182585134976334 C 4.98897943721882 -5.182585134976334 5.088627621763798 -5.2822333195213105 5.088627621763798 -5.404329721463782 C 5.088627621763798 -5.526426123406253 4.988979437218821 -5.62607430795123 4.8668830352763495 -5.62607430795123 L 3.1126369732867647 -5.62607430795123 C 2.9905405713442934 -5.62607430795123 2.8908923867993166 -5.526426123406253 2.8908923867993166 -5.404329721463782 C 2.8908923867993166 -5.2822333195213105 2.9899930538467934 -5.182585134976334 3.1120894557892633 -5.182585134976334 Z" fill="#0094ff" transform="matrix(1,0,0,1,0,0)" fill-rule="nonzero"></path></g><g clip-path="url(#SvgjsClipPath1000928d1fa8-1731-48b2-8c28-61fb06ed6e9e)"><path d=" M 3.7680154177941083 -1.6193412612471763 L 3.225425577771737 -1.6193412612471763 C 3.103329175829266 -1.6193412612471763 3.0036809912842877 -1.5196930767022012 3.0036809912842877 -1.3975966747597282 C 3.0036809912842877 -1.2755002728172569 3.103329175829264 -1.17585208827228 3.225425577771737 -1.17585208827228 L 3.7680154177941083 -1.17585208827228 C 3.8901118197365783 -1.17585208827228 3.9897600042815564 -1.2755002728172569 3.9897600042815564 -1.3975966747597282 C 3.9892124867840564 -1.5196930767022012 3.8906593372340796 -1.6193412612471763 3.7680154177941083 -1.6193412612471763 Z" fill="#0094ff" transform="matrix(1,0,0,1,0,0)" fill-rule="nonzero"></path></g></g><g><path d=" M 0.075439453125 0.5625000000000002 Q 0.075439453125 0.4848632812500002 0.0955810546875 0.4127197265625002 Q 0.11572265625 0.3405761718750002 0.154541015625 0.2783203125000002 Q 0.193359375 0.21606445312500022 0.249755859375 0.16479492187500022 Q 0.30615234375 0.11352539062500022 0.3782958984375 0.07690429687500022 Q 0.450439453125 0.04028320312500022 0.53759765625 0.020141601562500222 Q 0.624755859375 2.220446049250313e-16 0.72509765625 2.220446049250313e-16 Q 0.78955078125 2.220446049250313e-16 0.8485107421875 0.008056640625000222 Q 0.907470703125 0.016113281250000222 0.95947265625 0.030395507812500222 Q 1.011474609375 0.04467773437500022 1.0557861328125 0.06335449218750022 Q 1.10009765625 0.08203125000000022 1.135986328125 0.10253906250000022 L 1.072998046875 0.22558593750000022 Q 1.031982421875 0.20581054687500022 0.9796142578125 0.19226074218750022 Q 0.92724609375 0.17871093750000022 0.870849609375 0.17871093750000022 Q 0.79541015625 0.17871093750000022 0.73095703125 0.20581054687500022 Q 0.66650390625 0.23291015625000022 0.61962890625 0.2827148437500002 Q 0.57275390625 0.3325195312500002 0.5460205078125 0.4031982421875002 Q 0.519287109375 0.4738769531250002 0.519287109375 0.5617675781250002 Q 0.519287109375 0.6489257812500002 0.545654296875 0.7196044921875002 Q 0.572021484375 0.7902832031250002 0.6185302734375 0.8404541015625002 Q 0.6650390625 0.8906250000000002 0.7291259765625 0.9180908203125002 Q 0.793212890625 0.9455566406250002 0.867919921875 0.9455566406250002 Q 0.920654296875 0.9455566406250002 0.973388671875 0.9327392578125002 Q 1.026123046875 0.9199218750000002 1.070068359375 0.8986816406250002 L 1.133056640625 1.0217285156250002 Q 1.09716796875 1.0429687500000002 1.05322265625 1.0612792968750002 Q 1.00927734375 1.0795898437500002 0.9580078125 1.0938720703125002 Q 0.90673828125 1.1081542968750002 0.84814453125 1.1162109375000002 Q 0.78955078125 1.1242675781250002 0.72509765625 1.1242675781250002 Q 0.574951171875 1.1242675781250002 0.4544677734375 1.0799560546875002 Q 0.333984375 1.0356445312500002 0.249755859375 0.9591064453125002 Q 0.16552734375 0.8825683593750002 0.1204833984375 0.7803955078125002 Q 0.075439453125 0.6782226562500002 0.075439453125 0.5625000000000002 M 1.304443359375 0.017578125000000222 L 1.93212890625 0.017578125000000222 Q 2.0537109375 0.017578125000000222 2.1448974609375 0.04321289062500022 Q 2.236083984375 0.06884765625000022 2.2972412109375 0.11499023437500022 Q 2.3583984375 0.16113281250000022 2.38916015625 0.22558593750000022 Q 2.419921875 0.2900390625000002 2.419921875 0.3676757812500002 Q 2.419921875 0.4636230468750002 2.37451171875 0.5379638671875002 Q 2.3291015625 0.6123046875000002 2.23974609375 0.6562500000000002 L 2.46826171875 1.1066894531250002 L 1.989990234375 1.1066894531250002 L 1.817138671875 0.7111816406250002 L 1.727783203125 0.7111816406250002 L 1.727783203125 1.1059570312500002 L 1.304443359375 1.1059570312500002 L 1.304443359375 0.017578125000000222 M 1.75341796875 0.5786132812500002 Q 1.805419921875 0.5786132812500002 1.846435546875 0.5639648437500002 Q 1.887451171875 0.5493164062500002 1.916015625 0.5225830078125002 Q 1.944580078125 0.4958496093750002 1.9599609375 0.4588623046875002 Q 1.975341796875 0.4218750000000002 1.975341796875 0.3779296875000002 Q 1.975341796875 0.3339843750000002 1.9599609375 0.2969970703125002 Q 1.944580078125 0.2600097656250002 1.916015625 0.23327636718750022 Q 1.887451171875 0.20654296875000022 1.846435546875 0.19189453125000022 Q 1.805419921875 0.17724609375000022 1.75341796875 0.17724609375000022 L 1.728515625 0.17724609375000022 L 1.727783203125 0.5786132812500002 L 1.75341796875 0.5786132812500002 M 2.606689453125 0.5595703125000002 Q 2.606689453125 0.4357910156250002 2.646240234375 0.3328857421875002 Q 2.685791015625 0.22998046875000022 2.76416015625 0.15600585937500022 Q 2.842529296875 0.08203125000000022 2.959716796875 0.04101562500000022 Q 3.076904296875 2.220446049250313e-16 3.232177734375 2.220446049250313e-16 Q 3.387451171875 2.220446049250313e-16 3.504638671875 0.04101562500000022 Q 3.621826171875 0.08203125000000022 3.7001953125 0.15600585937500022 Q 3.778564453125 0.22998046875000022 3.818115234375 0.3328857421875002 Q 3.857666015625 0.4357910156250002 3.857666015625 0.5595703125000002 Q 3.857666015625 0.6848144531250002 3.818115234375 0.7888183593750002 Q 3.778564453125 0.8928222656250002 3.7001953125 0.9667968750000002 Q 3.621826171875 1.0407714843750002 3.504638671875 1.0817871093750002 Q 3.387451171875 1.1228027343750002 3.232177734375 1.1228027343750002 Q 3.076904296875 1.1228027343750002 2.959716796875 1.0817871093750002 Q 2.842529296875 1.0407714843750002 2.76416015625 0.9667968750000002 Q 2.685791015625 0.8928222656250002 2.646240234375 0.7888183593750002 Q 2.606689453125 0.6848144531250002 2.606689453125 0.5595703125000002 M 3.232177734375 0.9711914062500002 Q 3.276123046875 0.9711914062500002 3.309814453125 0.9558105468750002 Q 3.343505859375 0.9404296875000002 3.3662109375 0.8957519531250002 Q 3.388916015625 0.8510742187500002 3.400634765625 0.7705078125000002 Q 3.412353515625 0.6899414062500002 3.412353515625 0.5595703125000002 Q 3.412353515625 0.4306640625000002 3.400634765625 0.3508300781250002 Q 3.388916015625 0.2709960937500002 3.3662109375 0.22705078125000022 Q 3.343505859375 0.18310546875000022 3.309814453125 0.16772460937500022 Q 3.276123046875 0.15234375000000022 3.232177734375 0.15234375000000022 Q 3.188232421875 0.15234375000000022 3.1541748046875 0.16772460937500022 Q 3.1201171875 0.18310546875000022 3.097412109375 0.22705078125000022 Q 3.07470703125 0.2709960937500002 3.06298828125 0.3508300781250002 Q 3.05126953125 0.4306640625000002 3.05126953125 0.5595703125000002 Q 3.05126953125 0.6899414062500002 3.06298828125 0.7705078125000002 Q 3.07470703125 0.8510742187500002 3.097412109375 0.8957519531250002 Q 3.1201171875 0.9404296875000002 3.1541748046875 0.9558105468750002 Q 3.188232421875 0.9711914062500002 3.232177734375 0.9711914062500002 M 4.072265625 0.017578125000000222 L 4.33740234375 0.017578125000000222 L 5.028076171875 0.5976562500000002 L 5.02880859375 0.017578125000000222 L 5.18994140625 0.017578125000000222 L 5.18994140625 1.1059570312500002 L 4.9248046875 1.1059570312500002 L 4.2333984375 0.5280761718750002 L 4.2333984375 1.1059570312500002 L 4.072265625 1.1059570312500002 L 4.072265625 0.017578125000000222 M 5.659423828125 0.18457031250000022 L 5.348876953125 0.18457031250000022 L 5.348876953125 0.016845703125000222 L 6.393310546875 0.016845703125000222 L 6.393310546875 0.18457031250000022 L 6.082763671875 0.18457031250000022 L 6.082763671875 1.1059570312500002 L 5.659423828125 1.1059570312500002 L 5.659423828125 0.18457031250000022 M 6.55224609375 0.017578125000000222 L 7.179931640625 0.017578125000000222 Q 7.301513671875 0.017578125000000222 7.3927001953125 0.04321289062500022 Q 7.48388671875 0.06884765625000022 7.5450439453125 0.11499023437500022 Q 7.606201171875 0.16113281250000022 7.636962890625 0.22558593750000022 Q 7.667724609375 0.2900390625000002 7.667724609375 0.3676757812500002 Q 7.667724609375 0.4636230468750002 7.622314453125 0.5379638671875002 Q 7.576904296875 0.6123046875000002 7.487548828125 0.6562500000000002 L 7.716064453125 1.1066894531250002 L 7.23779296875 1.1066894531250002 L 7.06494140625 0.7111816406250002 L 6.9755859375 0.7111816406250002 L 6.9755859375 1.1059570312500002 L 6.55224609375 1.1059570312500002 L 6.55224609375 0.017578125000000222 M 7.001220703125 0.5786132812500002 Q 7.05322265625 0.5786132812500002 7.09423828125 0.5639648437500002 Q 7.13525390625 0.5493164062500002 7.163818359375 0.5225830078125002 Q 7.1923828125 0.4958496093750002 7.207763671875 0.4588623046875002 Q 7.22314453125 0.4218750000000002 7.22314453125 0.3779296875000002 Q 7.22314453125 0.3339843750000002 7.207763671875 0.2969970703125002 Q 7.1923828125 0.2600097656250002 7.163818359375 0.23327636718750022 Q 7.13525390625 0.20654296875000022 7.09423828125 0.19189453125000022 Q 7.05322265625 0.17724609375000022 7.001220703125 0.17724609375000022 L 6.976318359375 0.17724609375000022 L 6.9755859375 0.5786132812500002 L 7.001220703125 0.5786132812500002 M 8.21923828125 0.2922363281250002 L 8.09326171875 0.017578125000000222 L 8.539306640625 0.017578125000000222 L 9.072509765625 1.1066894531250002 L 8.59423828125 1.1066894531250002 L 8.513671875 0.9323730468750002 L 8.08447265625 0.9323730468750002 L 8.004638671875 1.1066894531250002 L 7.8193359375 1.1066894531250002 L 8.21923828125 0.2922363281250002 M 8.436767578125 0.7646484375000002 L 8.299072265625 0.4658203125000002 L 8.162109375 0.7646484375000002 L 8.436767578125 0.7646484375000002 M 9.158203125 0.5625000000000002 Q 9.158203125 0.4848632812500002 9.1783447265625 0.4127197265625002 Q 9.198486328125 0.3405761718750002 9.2373046875 0.2783203125000002 Q 9.276123046875 0.21606445312500022 9.33251953125 0.16479492187500022 Q 9.388916015625 0.11352539062500022 9.4610595703125 0.07690429687500022 Q 9.533203125 0.04028320312500022 9.620361328125 0.020141601562500222 Q 9.70751953125 2.220446049250313e-16 9.807861328125 2.220446049250313e-16 Q 9.872314453125 2.220446049250313e-16 9.9312744140625 0.008056640625000222 Q 9.990234375 0.016113281250000222 10.042236328125 0.030395507812500222 Q 10.09423828125 0.04467773437500022 10.1385498046875 0.06335449218750022 Q 10.182861328125 0.08203125000000022 10.21875 0.10253906250000022 L 10.15576171875 0.22558593750000022 Q 10.11474609375 0.20581054687500022 10.0623779296875 0.19226074218750022 Q 10.010009765625 0.17871093750000022 9.95361328125 0.17871093750000022 Q 9.878173828125 0.17871093750000022 9.813720703125 0.20581054687500022 Q 9.749267578125 0.23291015625000022 9.702392578125 0.2827148437500002 Q 9.655517578125 0.3325195312500002 9.6287841796875 0.4031982421875002 Q 9.60205078125 0.4738769531250002 9.60205078125 0.5617675781250002 Q 9.60205078125 0.6489257812500002 9.62841796875 0.7196044921875002 Q 9.65478515625 0.7902832031250002 9.7012939453125 0.8404541015625002 Q 9.747802734375 0.8906250000000002 9.8118896484375 0.9180908203125002 Q 9.8759765625 0.9455566406250002 9.95068359375 0.9455566406250002 Q 10.00341796875 0.9455566406250002 10.05615234375 0.9327392578125002 Q 10.10888671875 0.9199218750000002 10.15283203125 0.8986816406250002 L 10.2158203125 1.0217285156250002 Q 10.179931640625 1.0429687500000002 10.135986328125 1.0612792968750002 Q 10.092041015625 1.0795898437500002 10.040771484375 1.0938720703125002 Q 9.989501953125 1.1081542968750002 9.930908203125 1.1162109375000002 Q 9.872314453125 1.1242675781250002 9.807861328125 1.1242675781250002 Q 9.65771484375 1.1242675781250002 9.5372314453125 1.0799560546875002 Q 9.416748046875 1.0356445312500002 9.33251953125 0.9591064453125002 Q 9.248291015625 0.8825683593750002 9.2032470703125 0.7803955078125002 Q 9.158203125 0.6782226562500002 9.158203125 0.5625000000000002 M 10.38720703125 0.017578125000000222 L 10.810546875 0.017578125000000222 L 10.810546875 0.6481933593750002 L 11.281494140625 0.017578125000000222 L 11.4931640625 0.017578125000000222 L 11.14599609375 0.4848632812500002 L 11.600830078125 1.1066894531250002 L 11.1240234375 1.1066894531250002 L 10.880859375 0.7646484375000002 L 10.810546875 0.8613281250000002 L 10.810546875 1.1059570312500002 L 10.38720703125 1.1059570312500002 L 10.38720703125 0.017578125000000222" fill="#002540" fill-rule="nonzero"></path></g><g><path d=" M 0.378 1.57049560546875 Q 0.36675 1.55774560546875 0.35175 1.54762060546875 Q 0.33675 1.53749560546875 0.318 1.52999560546875 Q 0.29925 1.52249560546875 0.277875 1.51799560546875 Q 0.2565 1.51349560546875 0.2325 1.51349560546875 Q 0.16275 1.51349560546875 0.130125 1.54012060546875 Q 0.0975 1.5667456054687499 0.0975 1.61249560546875 Q 0.0975 1.64399560546875 0.112875 1.66199560546875 Q 0.12825 1.67999560546875 0.16125 1.69124560546875 Q 0.19425 1.70249560546875 0.24525 1.71449560546875 Q 0.30225 1.72649560546875 0.3435 1.7429956054687499 Q 0.38475 1.75949560546875 0.40725 1.78762060546875 Q 0.42975 1.81574560546875 0.42975 1.86374560546875 Q 0.42975 1.90049560546875 0.41550000000000004 1.92749560546875 Q 0.40125 1.95449560546875 0.37575000000000003 1.97249560546875 Q 0.35025 1.99049560546875 0.315 1.99912060546875 Q 0.27975 2.00774560546875 0.23775000000000002 2.00774560546875 Q 0.1965 2.00774560546875 0.15862500000000002 1.99912060546875 Q 0.12075 1.99049560546875 0.08700000000000001 1.97362060546875 Q 0.05325 1.95674560546875 0.024 1.9304956054687499 L 0.05025 1.88774560546875 Q 0.0645 1.90274560546875 0.084375 1.91587060546875 Q 0.10425 1.92899560546875 0.128625 1.93949560546875 Q 0.153 1.94999560546875 0.181125 1.95562060546875 Q 0.20925 1.96124560546875 0.23925000000000002 1.96124560546875 Q 0.303 1.96124560546875 0.338625 1.93799560546875 Q 0.37425 1.91474560546875 0.37425 1.86899560546875 Q 0.37425 1.8359956054687498 0.35625 1.81612060546875 Q 0.33825 1.79624560546875 0.30225 1.78349560546875 Q 0.26625 1.77074560546875 0.21375 1.75874560546875 Q 0.15825 1.74599560546875 0.12 1.7302456054687498 Q 0.08175 1.71449560546875 0.062625 1.68862060546875 Q 0.043500000000000004 1.66274560546875 0.043500000000000004 1.6199956054687499 Q 0.043500000000000004 1.57049560546875 0.067875 1.53637060546875 Q 0.09225 1.50224560546875 0.135 1.4846206054687499 Q 0.17775 1.46699560546875 0.23325 1.46699560546875 Q 0.2685 1.46699560546875 0.298875 1.47412060546875 Q 0.32925 1.48124560546875 0.355125 1.4947456054687498 Q 0.381 1.5082456054687499 0.4035 1.52849560546875 L 0.378 1.57049560546875 M 0.7376209716796874 2.00699560546875 Q 0.6813709716796874 2.00699560546875 0.6356209716796875 1.98449560546875 Q 0.5898709716796875 1.96199560546875 0.5568709716796875 1.92337060546875 Q 0.5238709716796874 1.88474560546875 0.5058709716796874 1.8363706054687499 Q 0.4878709716796874 1.78799560546875 0.4878709716796874 1.73699560546875 Q 0.4878709716796874 1.6837456054687499 0.5066209716796874 1.63537060546875 Q 0.5253709716796875 1.58699560546875 0.5594959716796875 1.54912060546875 Q 0.5936209716796874 1.51124560546875 0.6393709716796874 1.48912060546875 Q 0.6851209716796874 1.46699560546875 0.7383709716796875 1.46699560546875 Q 0.7946209716796875 1.46699560546875 0.8403709716796874 1.49024560546875 Q 0.8861209716796874 1.51349560546875 0.9187459716796875 1.55249560546875 Q 0.9513709716796874 1.59149560546875 0.9693709716796874 1.63949560546875 Q 0.9873709716796875 1.68749560546875 0.9873709716796875 1.73774560546875 Q 0.9873709716796875 1.79099560546875 0.9686209716796874 1.83937060546875 Q 0.9498709716796874 1.88774560546875 0.9161209716796874 1.92562060546875 Q 0.8823709716796875 1.96349560546875 0.8366209716796875 1.98524560546875 Q 0.7908709716796875 2.00699560546875 0.7376209716796874 2.00699560546875 M 0.5403709716796874 1.73699560546875 Q 0.5403709716796874 1.78049560546875 0.5546209716796875 1.82062060546875 Q 0.5688709716796875 1.86074560546875 0.5951209716796875 1.89187060546875 Q 0.6213709716796875 1.92299560546875 0.6577459716796874 1.94137060546875 Q 0.6941209716796874 1.9597456054687499 0.7376209716796874 1.9597456054687499 Q 0.7833709716796875 1.9597456054687499 0.8197459716796874 1.94062060546875 Q 0.8561209716796874 1.92149560546875 0.8819959716796875 1.8896206054687499 Q 0.9078709716796874 1.85774560546875 0.9213709716796874 1.81799560546875 Q 0.9348709716796875 1.7782456054687499 0.9348709716796875 1.73699560546875 Q 0.9348709716796875 1.69349560546875 0.9206209716796874 1.65374560546875 Q 0.9063709716796875 1.6139956054687499 0.8797459716796874 1.58249560546875 Q 0.8531209716796875 1.55099560546875 0.8171209716796874 1.53299560546875 Q 0.7811209716796874 1.51499560546875 0.7376209716796874 1.51499560546875 Q 0.6926209716796874 1.51499560546875 0.6562459716796875 1.53374560546875 Q 0.6198709716796874 1.55249560546875 0.5939959716796874 1.58437060546875 Q 0.5681209716796874 1.61624560546875 0.5542459716796875 1.65599560546875 Q 0.5403709716796874 1.6957456054687499 0.5403709716796874 1.73699560546875 M 1.0522283935546872 1.73324560546875 Q 1.0522283935546872 1.6844956054687499 1.0691033935546872 1.6376206054687499 Q 1.0859783935546872 1.5907456054687499 1.118228393554687 1.55212060546875 Q 1.1504783935546872 1.51349560546875 1.1977283935546872 1.49062060546875 Q 1.2449783935546872 1.46774560546875 1.3049783935546873 1.46774560546875 Q 1.376228393554687 1.46774560546875 1.4268533935546872 1.50037060546875 Q 1.4774783935546871 1.53299560546875 1.5014783935546872 1.58399560546875 L 1.4602283935546871 1.60949560546875 Q 1.4429783935546872 1.57424560546875 1.416728393554687 1.55362060546875 Q 1.3904783935546872 1.53299560546875 1.3608533935546872 1.52399560546875 Q 1.3312283935546871 1.51499560546875 1.3019783935546871 1.51499560546875 Q 1.253978393554687 1.51499560546875 1.217228393554687 1.53412060546875 Q 1.1804783935546872 1.55324560546875 1.1553533935546871 1.5851206054687499 Q 1.130228393554687 1.61699560546875 1.1174783935546873 1.65637060546875 Q 1.1047283935546872 1.6957456054687499 1.1047283935546872 1.73624560546875 Q 1.1047283935546872 1.78049560546875 1.1197283935546871 1.82099560546875 Q 1.1347283935546872 1.86149560546875 1.1617283935546872 1.89262060546875 Q 1.188728393554687 1.92374560546875 1.2251033935546871 1.9421206054687499 Q 1.2614783935546872 1.96049560546875 1.3042283935546872 1.96049560546875 Q 1.334228393554687 1.96049560546875 1.3657283935546871 1.94999560546875 Q 1.3972283935546872 1.93949560546875 1.4246033935546871 1.91774560546875 Q 1.451978393554687 1.89599560546875 1.4684783935546872 1.86149560546875 L 1.511978393554687 1.88399560546875 Q 1.4954783935546871 1.92374560546875 1.4609783935546872 1.95149560546875 Q 1.4264783935546872 1.97924560546875 1.3841033935546871 1.99349560546875 Q 1.341728393554687 2.00774560546875 1.3012283935546871 2.00774560546875 Q 1.2464783935546873 2.00774560546875 1.200728393554687 1.98412060546875 Q 1.1549783935546871 1.96049560546875 1.1216033935546872 1.92112060546875 Q 1.088228393554687 1.88174560546875 1.0702283935546872 1.83262060546875 Q 1.0522283935546872 1.78349560546875 1.0522283935546872 1.73324560546875 M 1.6030839843749998 2.00324560546875 L 1.6030839843749998 1.47074560546875 L 1.6555839843749998 1.47074560546875 L 1.6555839843749998 2.00324560546875 L 1.6030839843749998 2.00324560546875 M 1.9551983642578121 1.47074560546875 L 1.9994483642578122 1.47074560546875 L 2.2206983642578124 2.00324560546875 L 2.165198364257812 2.00324560546875 L 2.096198364257812 1.8367456054687499 L 1.8569483642578122 1.8367456054687499 L 1.7886983642578123 2.00324560546875 L 1.7324483642578121 2.00324560546875 L 1.9551983642578121 1.47074560546875 M 2.084198364257812 1.7954956054687499 L 1.9769483642578123 1.5322456054687499 L 1.8681983642578122 1.7954956054687499 L 2.084198364257812 1.7954956054687499 M 2.298342407226562 2.00324560546875 L 2.298342407226562 1.47074560546875 L 2.3508424072265623 1.47074560546875 L 2.3508424072265623 1.95674560546875 L 2.6583424072265625 1.95674560546875 L 2.6583424072265625 2.00324560546875 L 2.298342407226562 2.00324560546875 M 3.379108154296875 2.00324560546875 L 3.379108154296875 1.56974560546875 L 3.186358154296875 1.9064956054687499 L 3.1533581542968747 1.9064956054687499 L 2.959858154296875 1.56974560546875 L 2.959858154296875 2.00324560546875 L 2.9073581542968747 2.00324560546875 L 2.9073581542968747 1.47074560546875 L 2.961358154296875 1.47074560546875 L 3.169108154296875 1.83524560546875 L 3.378358154296875 1.47074560546875 L 3.4316081542968746 1.47074560546875 L 3.4316081542968746 2.00324560546875 L 3.379108154296875 2.00324560546875 M 3.9239937744140625 1.95674560546875 L 3.9239937744140625 2.00324560546875 L 3.5662437744140623 2.00324560546875 L 3.5662437744140623 1.47074560546875 L 3.9172437744140622 1.47074560546875 L 3.9172437744140622 1.51724560546875 L 3.6187437744140625 1.51724560546875 L 3.6187437744140625 1.70924560546875 L 3.8789937744140626 1.70924560546875 L 3.8789937744140626 1.75349560546875 L 3.6187437744140625 1.75349560546875 L 3.6187437744140625 1.95674560546875 L 3.9239937744140625 1.95674560546875 M 4.024125366210938 2.00324560546875 L 4.024125366210938 1.47074560546875 L 4.2048753662109375 1.47074560546875 Q 4.289625366210937 1.47074560546875 4.3462503662109375 1.50637060546875 Q 4.402875366210937 1.54199560546875 4.431375366210937 1.6023706054687499 Q 4.459875366210937 1.66274560546875 4.459875366210937 1.73624560546875 Q 4.459875366210937 1.81724560546875 4.428750366210937 1.87724560546875 Q 4.397625366210938 1.93724560546875 4.340250366210937 1.97024560546875 Q 4.282875366210938 2.00324560546875 4.2048753662109375 2.00324560546875 L 4.024125366210938 2.00324560546875 M 4.407375366210937 1.73624560546875 Q 4.407375366210937 1.6724956054687499 4.383750366210937 1.62299560546875 Q 4.360125366210937 1.57349560546875 4.315125366210937 1.54537060546875 Q 4.270125366210937 1.51724560546875 4.2048753662109375 1.51724560546875 L 4.076625366210937 1.51724560546875 L 4.076625366210937 1.95674560546875 L 4.2048753662109375 1.95674560546875 Q 4.270875366210937 1.95674560546875 4.315875366210937 1.92749560546875 Q 4.360875366210937 1.89824560546875 4.384125366210937 1.8483706054687499 Q 4.407375366210937 1.79849560546875 4.407375366210937 1.73624560546875 M 4.561520507812499 2.00324560546875 L 4.561520507812499 1.47074560546875 L 4.6140205078125 1.47074560546875 L 4.6140205078125 2.00324560546875 L 4.561520507812499 2.00324560546875 M 4.913634887695312 1.47074560546875 L 4.957884887695312 1.47074560546875 L 5.179134887695312 2.00324560546875 L 5.123634887695312 2.00324560546875 L 5.054634887695312 1.8367456054687499 L 4.815384887695312 1.8367456054687499 L 4.747134887695312 2.00324560546875 L 4.690884887695312 2.00324560546875 L 4.913634887695312 1.47074560546875 M 5.042634887695312 1.7954956054687499 L 4.935384887695312 1.5322456054687499 L 4.826634887695312 1.7954956054687499 L 5.042634887695312 1.7954956054687499 M 5.897653198242187 2.00324560546875 L 5.897653198242187 1.56974560546875 L 5.704903198242187 1.9064956054687499 L 5.6719031982421875 1.9064956054687499 L 5.478403198242187 1.56974560546875 L 5.478403198242187 2.00324560546875 L 5.425903198242187 2.00324560546875 L 5.425903198242187 1.47074560546875 L 5.479903198242187 1.47074560546875 L 5.687653198242187 1.83524560546875 L 5.896903198242187 1.47074560546875 L 5.950153198242187 1.47074560546875 L 5.950153198242187 2.00324560546875 L 5.897653198242187 2.00324560546875 M 6.249788818359375 1.47074560546875 L 6.2940388183593745 1.47074560546875 L 6.515288818359375 2.00324560546875 L 6.459788818359375 2.00324560546875 L 6.390788818359375 1.8367456054687499 L 6.151538818359374 1.8367456054687499 L 6.0832888183593745 2.00324560546875 L 6.027038818359375 2.00324560546875 L 6.249788818359375 1.47074560546875 M 6.378788818359375 1.7954956054687499 L 6.2715388183593745 1.5322456054687499 L 6.162788818359375 1.7954956054687499 L 6.378788818359375 1.7954956054687499 M 6.645432861328125 1.5674956054687499 L 6.645432861328125 2.00324560546875 L 6.592932861328125 2.00324560546875 L 6.592932861328125 1.47074560546875 L 6.6364328613281245 1.47074560546875 L 6.985932861328124 1.91474560546875 L 6.985932861328124 1.4714956054687498 L 7.038432861328125 1.4714956054687498 L 7.038432861328125 2.00324560546875 L 6.9896828613281246 2.00324560546875 L 6.645432861328125 1.5674956054687499 M 7.338037353515625 1.47074560546875 L 7.382287353515625 1.47074560546875 L 7.603537353515625 2.00324560546875 L 7.548037353515625 2.00324560546875 L 7.479037353515625 1.8367456054687499 L 7.2397873535156245 1.8367456054687499 L 7.171537353515625 2.00324560546875 L 7.115287353515625 2.00324560546875 L 7.338037353515625 1.47074560546875 M 7.467037353515625 1.7954956054687499 L 7.359787353515625 1.5322456054687499 L 7.251037353515625 1.7954956054687499 L 7.467037353515625 1.7954956054687499 M 7.8754306640625 2.00699560546875 Q 7.8221806640625 2.00699560546875 7.7764306640625 1.98412060546875 Q 7.7306806640625 1.96124560546875 7.6969306640625 1.92224560546875 Q 7.6631806640625 1.8832456054687499 7.6448056640625 1.83524560546875 Q 7.6264306640625 1.78724560546875 7.6264306640625 1.73624560546875 Q 7.6264306640625 1.68224560546875 7.6448056640625 1.63387060546875 Q 7.6631806640625 1.58549560546875 7.6961806640625 1.54799560546875 Q 7.7291806640625 1.51049560546875 7.7741806640624995 1.48874560546875 Q 7.8191806640624995 1.46699560546875 7.8724306640625 1.46699560546875 Q 7.9511806640625 1.46699560546875 8.0006806640625 1.49924560546875 Q 8.0501806640625 1.5314956054687499 8.0756806640625 1.58324560546875 L 8.0351806640625 1.61024560546875 Q 8.0096806640625 1.56074560546875 7.9669306640625 1.53749560546875 Q 7.9241806640625 1.51424560546875 7.8716806640625 1.51424560546875 Q 7.8274306640625 1.51424560546875 7.7918056640625 1.53299560546875 Q 7.7561806640625 1.55174560546875 7.7306806640625 1.58324560546875 Q 7.7051806640625 1.61474560546875 7.6920556640625 1.65449560546875 Q 7.6789306640624995 1.69424560546875 7.6789306640624995 1.73699560546875 Q 7.6789306640624995 1.78199560546875 7.6939306640625 1.82212060546875 Q 7.7089306640625 1.86224560546875 7.7366806640625 1.89337060546875 Q 7.7644306640625 1.9244956054687499 7.8008056640625 1.9421206054687499 Q 7.8371806640625 1.9597456054687499 7.8791806640625 1.9597456054687499 Q 7.9279306640625 1.9597456054687499 7.9714306640625 1.93537060546875 Q 8.0149306640625 1.91099560546875 8.0546806640625 1.8599956054687499 L 8.0546806640625 1.91549560546875 Q 7.9789306640625 2.00699560546875 7.8754306640625 2.00699560546875 M 8.0464306640625 1.78199560546875 L 7.9279306640625 1.78199560546875 L 7.9279306640625 1.74149560546875 L 8.0906806640625 1.74149560546875 L 8.0906806640625 2.00324560546875 L 8.0464306640625 2.00324560546875 L 8.0464306640625 1.78199560546875 M 8.557558227539062 1.95674560546875 L 8.557558227539062 2.00324560546875 L 8.199808227539062 2.00324560546875 L 8.199808227539062 1.47074560546875 L 8.550808227539061 1.47074560546875 L 8.550808227539061 1.51724560546875 L 8.25230822753906 1.51724560546875 L 8.25230822753906 1.70924560546875 L 8.512558227539062 1.70924560546875 L 8.512558227539062 1.75349560546875 L 8.25230822753906 1.75349560546875 L 8.25230822753906 1.95674560546875 L 8.557558227539062 1.95674560546875 M 9.129439819335936 2.00324560546875 L 9.129439819335936 1.56974560546875 L 8.936689819335937 1.9064956054687499 L 8.903689819335936 1.9064956054687499 L 8.710189819335936 1.56974560546875 L 8.710189819335936 2.00324560546875 L 8.657689819335937 2.00324560546875 L 8.657689819335937 1.47074560546875 L 8.711689819335936 1.47074560546875 L 8.919439819335937 1.83524560546875 L 9.128689819335937 1.47074560546875 L 9.181939819335936 1.47074560546875 L 9.181939819335936 2.00324560546875 L 9.129439819335936 2.00324560546875 M 9.674325439453124 1.95674560546875 L 9.674325439453124 2.00324560546875 L 9.316575439453125 2.00324560546875 L 9.316575439453125 1.47074560546875 L 9.667575439453124 1.47074560546875 L 9.667575439453124 1.51724560546875 L 9.369075439453123 1.51724560546875 L 9.369075439453123 1.70924560546875 L 9.629325439453124 1.70924560546875 L 9.629325439453124 1.75349560546875 L 9.369075439453123 1.75349560546875 L 9.369075439453123 1.95674560546875 L 9.674325439453124 1.95674560546875 M 9.826957031249998 1.5674956054687499 L 9.826957031249998 2.00324560546875 L 9.77445703125 2.00324560546875 L 9.77445703125 1.47074560546875 L 9.81795703125 1.47074560546875 L 10.167457031249999 1.91474560546875 L 10.167457031249999 1.4714956054687498 L 10.219957031249999 1.4714956054687498 L 10.219957031249999 2.00324560546875 L 10.171207031249999 2.00324560546875 L 9.826957031249998 1.5674956054687499 M 10.7325615234375 1.51724560546875 L 10.5428115234375 1.51724560546875 L 10.5428115234375 2.00324560546875 L 10.4903115234375 2.00324560546875 L 10.4903115234375 1.51724560546875 L 10.3005615234375 1.51724560546875 L 10.3005615234375 1.47074560546875 L 10.7325615234375 1.47074560546875 L 10.7325615234375 1.51724560546875" fill="#000000" fill-rule="nonzero"></path></g></g><defs><clipPath id="SvgjsClipPath1002"><path d=" M 0 -5.737770566869979 h 8.20509721753306 v 5.487770566869979 h -8.20509721753306 Z"></path></clipPath><clipPath id="SvgjsClipPath1000928d1fa8-1731-48b2-8c28-61fb06ed6e9e"><path d=" M 0 -5.737770566869979 L 8.20509721753306 -5.737770566869979 L 8.20509721753306 -0.2500000000000009 L 0 -0.2500000000000009 Z"></path></clipPath></defs></svg>