<svg xmlns="http://www.w3.org/2000/svg" xmlns:xlink="http://www.w3.org/1999/xlink" xmlns:serif="http://www.serif.com/" viewBox="0 0 32 40" fill="white" width="20px" height="20px"  version="1.1" xml:space="preserve" style="" x="0px" y="0px" fill-rule="evenodd" clip-rule="evenodd" stroke-linejoin="round" stroke-miterlimit="2"><g><path d="M14.806,18.022C9.494,18.022 5.058,21.803 4.017,26.816C3.963,27.107 4.04,27.407 4.228,27.636C4.418,27.867 4.702,28 5,28L20.894,28C21.446,28 21.894,28.448 21.894,29C21.894,29.552 21.446,30 20.894,30L5.001,30C4.104,30 3.255,29.6 2.685,28.908C2.114,28.215 1.884,27.305 2.056,26.425C2.056,26.421 2.057,26.417 2.058,26.414C2.989,21.919 6.234,18.261 10.489,16.759C8.268,15.334 6.795,12.843 6.795,10.011C6.795,5.59 10.385,2 14.806,2C18.429,2 21.493,4.41 22.482,7.713C22.7,8.441 22.817,9.213 22.817,10.011C22.817,11.03 22.626,12.005 22.279,12.902C21.661,14.498 20.545,15.847 19.124,16.759C19.922,17.041 20.685,17.399 21.403,17.824C21.878,18.105 22.036,18.719 21.754,19.194C21.473,19.669 20.86,19.827 20.385,19.545C18.75,18.578 16.842,18.022 14.806,18.022ZM14.806,16.022C17.36,16.022 19.543,14.427 20.414,12.18C20.675,11.507 20.817,10.776 20.817,10.011C20.817,9.412 20.73,8.833 20.566,8.287C19.824,5.808 17.525,4 14.806,4C11.488,4 8.795,6.694 8.795,10.011C8.795,13.329 11.488,16.022 14.806,16.022ZM24,25L21,25C20.448,25 20,24.552 20,24C20,23.448 20.448,23 21,23L24,23L24,20C24,19.448 24.448,19 25,19C25.552,19 26,19.448 26,20L26,23L29,23C29.552,23 30,23.448 30,24C30,24.552 29.552,25 29,25L26,25L26,28C26,28.552 25.552,29 25,29C24.448,29 24,28.552 24,28L24,25Z"/></g><text x="0" y="47" fill="#000000" font-size="2px" font-weight="bold" font-family="'Helvetica Neue', Helvetica, Arial-Unicode, Arial, Sans-serif">Created by icelloid</text><text x="0" y="52" fill="#000000" font-size="2px" font-weight="bold" font-family="'Helvetica Neue', Helvetica, Arial-Unicode, Arial, Sans-serif">from the Noun Project</text></svg>